<?xml version="1.0" standalone="no"?>
<!DOCTYPE svg PUBLIC "-//W3C//DTD SVG 20010904//EN"
 "http://www.w3.org/TR/2001/REC-SVG-20010904/DTD/svg10.dtd">
<svg version="1.0" xmlns="http://www.w3.org/2000/svg"
 width="1024.000000pt" height="1024.000000pt" viewBox="0 0 1024.000000 1024.000000"
 preserveAspectRatio="xMidYMid meet">
<metadata>
Created by potrace 1.16, written by Peter Selinger 2001-2019
</metadata>
<g transform="translate(0.000000,1024.000000) scale(0.100000,-0.100000)"
fill="#000000" stroke="none">
<path d="M0 5120 l0 -5120 5120 0 5120 0 0 5120 0 5120 -5120 0 -5120 0 0
-5120z m5770 4605 c605 -60 1159 -221 1701 -496 1226 -621 2120 -1732 2474
-3073 184 -699 203 -1446 55 -2176 -206 -1016 -732 -1931 -1505 -2619 -344
-306 -706 -548 -1112 -743 -571 -274 -1131 -421 -1778 -469 -177 -13 -608 -7
-765 11 -642 73 -1160 222 -1688 485 -485 242 -858 511 -1238 890 -396 396
-655 752 -904 1240 -276 543 -435 1091 -502 1735 -17 162 -17 693 0 865 137
1385 807 2585 1908 3417 462 349 1029 626 1603 784 326 89 604 136 971 164
159 12 593 4 780 -15z"/>
</g>
</svg>
